<?xml version="1.0" encoding="UTF-8"?>
<svg id="Layer_1" data-name="Layer 1" xmlns="http://www.w3.org/2000/svg" viewBox="0 0 753 425">
  <defs>
    <style>
      .cls-1 {
        fill: #ea6780;
      }

      .cls-2 {
        fill: #eb7087;
      }

      .cls-3 {
        fill: #fff;
      }

      .cls-4 {
        fill: #fffdfd;
      }

      .cls-5 {
        fill: #ea6982;
      }

      .cls-6 {
        fill: #eb6a83;
      }

      .cls-7 {
        fill: #ec7289;
      }

      .cls-8 {
        fill: #fefafb;
      }

      .cls-9 {
        fill: #f2a2b1;
      }

      .cls-10 {
        fill: #f19bab;
      }

      .cls-11 {
        fill: #ea6881;
      }

      .cls-12 {
        fill: #ef8c9f;
      }

      .cls-13 {
        fill: #ee8195;
      }

      .cls-14 {
        fill: #ea677f;
      }

      .cls-15 {
        fill: #f092a4;
      }

      .cls-16 {
        fill: #eb6c84;
      }

      .cls-17 {
        fill: #ed798f;
      }

      .cls-18 {
        fill: #fffefe;
      }

      .cls-19 {
        fill: #ea667f;
      }

      .cls-20 {
        fill: #ea6880;
      }
    </style>
  </defs>
  <path class="cls-3" d="m0,425C0,283.33,0,141.67,0,0c251,0,502,0,753,0,0,141.67,0,283.33,0,425-251,0-502,0-753,0Zm496.86-189.16c-.95.43-1.9.86-2.85,1.29-4.38,1.13-8.77,2.26-13.15,3.4-.92.31-1.83.63-2.75.94.04.24.09.48.13.72l2.75-.34c4.41-1.07,8.81-2.15,13.22-3.22,1.15-.71,2.3-1.42,3.44-2.14.12-.36.24-.72.36-1.09-.38.14-.77.28-1.15.43Zm175.01-93.22c2.03.5,4.06.99,6.09,1.49,6.71,3.16,13.51,6.15,20.1,9.54,3.67,1.89,7,4.46,10.49,6.71.79,1.39,1.58,2.77,2.37,4.16,3.3,5.26,6.61,10.53,10,15.93,5.41-5.35-5.36-8.95-1.8-12.63-2.77-2.59-4.97-4.64-7.16-6.69-.95-.42-1.9-.83-2.85-1.25-5.66-4.27-11.06-8.97-17.08-12.65-3.67-2.25-8.29-2.93-12.49-4.32-2.52-.92-5.04-1.84-7.56-2.76-2.37.27-4.73.53-7.1.8-.04.29-.07.58-.11.86,2.36.27,4.73.53,7.09.8Zm-130.75,45.33c-.43-1.65-.85-3.3-1.28-4.96,1.02-9.08-2.47-17.06-6.11-25-.59-.96-1.18-1.92-1.77-2.88-4.03-7.05-10.1-11.31-17.94-13.16-3.06-.9-6.73-1.05-9.04-2.9-3.09-2.46-4.31-1.28-5.88,1.13-9.19,2.2-16.22,7.62-22.13,14.74-.64,1.69-1.28,3.38-1.92,5.07.99.04,1.99.08,2.98.12,3.82-3.75,8.6-1.57,12.94-2.11.33.24.65.47.98.71.7.07,1.39.14,2.09.2,2.99,1.36,5.98,2.71,8.96,4.07,3.02,2,6.03,4,9.05,5.99,1.28,1.11,2.56,2.22,3.84,3.34,1.15,1.56,2.3,3.12,3.45,4.67,1.21,1.37,2.42,2.74,3.63,4.1,1.68,3.63,3.35,7.27,5.03,10.9-.57,2.01-4.38,3.04-1.83,6,.28,1.33.55,2.65.83,3.98-.27.33-.55.66-.82.99-3.33,10.55-8.85,19.59-18.06,26.07-1.02.71-2.03,1.43-3.05,2.14-1.8,1.22-3.6,2.45-5.41,3.67-.36.56-.73,1.11-1.09,1.67.85-.08,1.7-.15,2.55-.23,3.25-1.14,6.54-2.2,9.76-3.44,14.94-5.72,28.63-13.37,39.13-25.83,1.36-1.67,2.72-3.33,4.07-5,1.93-2.01,3.91-3.97,5.77-6.04,9.04-9.99,18.04-20.01,27.06-30.02.34-.22.68-.44,1.02-.66,1.04-.78,1.99-1.76,3.15-2.31,10.61-5.1,21.26-10.13,31.9-15.18,4.22-1.02,8.44-2.05,12.66-3.07-.18-.75-.36-1.51-.54-2.26-4.05.75-8.1,1.5-12.16,2.25-12.31,2.67-24,6.88-34.83,13.43-1.54.93-3.84.52-5.71,1.01-1.33.35-2.68.97-3.78,1.79-3.61,2.68-7.11,5.5-10.66,8.26-.36.24-.73.48-1.09.72-1.28.47-2.57.93-3.85,1.4-3.76,1.4-7.63,2.7-7.92,7.68-3.71,2.96-7.42,5.92-11.13,8.89-.95.01-1.9.02-2.85.04Zm172.75,22.55c-1.79,2.7-3.57,5.4-5.36,8.11-1.39,1.16-2.78,2.31-4.16,3.47-3.25,2.74-6.13,7.05-9.82,7.9-7.2,1.66-13.68,6.61-21.58,5.17-5.1-1.75-10.28-3.3-15.29-5.29-7.22-2.87-7.23-10.68-10.63-16.19-.15-.24-.09-.67-.01-.98,1.16-4.91,1.83-10.02,3.64-14.69,2.66-6.87,12.85-12.8,18.67-11.9,3.96.61,8,.78,12,1.14.29-.54.58-1.08.88-1.62-3.85-3.46-7.26-7.68-11.64-10.23-9.95-5.78-22.16-4.53-31.9,3.76-9.16,7.79-12.64,18.45-9.1,31.1,2.49,8.88,8.33,14.7,15.43,19.75.67.62,1.34,1.23,2.01,1.85,1.74.31,3.49.58,5.23.92,6.9,1.35,13.8,2.72,20.7,4.08,5.52-.06,11.03-.02,16.54-.26,1.15-.05,2.32-1.03,3.37-1.74,2.27-1.56,4.62-3.06,6.66-4.89,3.6-3.24,8.72-5.19,9.6-10.85,1.31-1.32,2.63-2.63,3.94-3.95.94-.71,2.4-1.23,2.74-2.17,1.29-3.53,2.24-7.19,3.28-10.81.91-3.2,1.76-6.42,2.64-9.63-.31-.09-.62-.17-.93-.26-2.31,6.07-4.62,12.14-6.93,18.21ZM71.26,69.22c9.38-3.22,18.79-6.15,28.75-2.37,7.35,3.65,14.71,7.29,22.06,10.94.75.7,1.5,1.4,2.25,2.1.56,1.84,1.61,3.68,1.62,5.52.1,25.67.05,51.35.06,77.02.01,19.29.08,38.59.08,57.88,0,.84-.4,1.68-.57,2.53-1.38,6.85-6.98,8.02-12.5,9.29h-3.24c0,.23.01.47.02.7h3.22c21.33,0,42.66,0,63.99,0h4.37c0-.23,0-.46.01-.69h-4.38c-8.94-2.09-12.84-8.17-12.89-17.45-.24-41.82-.37-83.64.08-125.45.11-10.66,3.01-15.65,15.39-17.3.77-.1,1.48-.64,2.21-.98-15.63-.98-31.06-.95-46.49-1.01-2.3,0-4.64-.23-6.89-.7-9.48-1.95-18.93-4.02-28.39-6.05-5.41-.08-10.93-.82-16.21-.03-4.74.71-9.22,3.12-13.82,4.79-.49.05-1.14-.09-1.46.17-17.87,14.69-16.56,40.45,2.52,51.75,7.05,4.91,14.68,5.98,23.07,4.16,12.45-2.7,22.41-13.36,21.64-24.69-.65-9.48-5.17-17.6-13.82-21.59-8.91-4.12-17.66-1.81-24.24,4.06,2.85,1.63,6.67,2.7,8.76,5.22,6.41,7.72,7.64,17.17,6.21,26.75-.34,2.29-3.35,4.92-5.75,6-4.85,2.18-9.99,1.58-14.79-.93-.88-.73-1.8-1.42-2.64-2.2-6.9-6.37-12-13.52-11.58-23.61.42-10.33,5.94-17.57,13.35-23.86Zm76.77,303.92c-1.24-.38-2.32-.44-3.72-1.11-10.98-.4-21.08-3.87-30.33-9.46-14.58-8.8-25.67-20.67-30.43-37.55.22-4.78-.64-9.93.84-14.28,6.55-19.19,19.91-29.29,41.88-23.11,12.58,3.54,19.65,16.25,16.91,28.99-2.61,12.08-8.81,21.54-20.1,28.84,2.65.68,4.34,1.57,5.95,1.44,4.23-.35,8.51-.77,12.6-1.81,22.45-5.69,31.52-22.33,32.25-38.57.72-15.87-8.89-25.75-21.39-33.38-8.36-5.1-17.81-4.94-26.93-3.89-6.37.74-13.06,2.56-18.62,5.67-11.57,6.47-19.03,17.06-23.66,29.27-2.48,6.55-3.68,13.68-1.2,20.77.33,2.09.23,4.37,1.05,6.25,10.86,24.88,37.46,42.97,64.88,42.71,4.33.3,8.66.61,12.99.91,5.39-.6,10.76-1.27,16.16-1.8,17.24-1.69,30.05-10.18,37.57-25.69,6.6-13.62,8.08-28.24,4.76-43-1.79-7.95-4.87-15.61-7.38-23.41-.4-2.82-2.27-5.3-1.28-8.42-3.81-11.06-8.45-21.86-11.68-33.07-2.06-7.15-2.16-14.86-3.13-22.33,1.28,1.08,2.68,2.05,3.81,3.26,6.91,7.43,15.7,11.6,25.16,14.62.65.37,1.31.74,1.96,1.1,9.86,1.53,18.58-1.8,27.03-6.32,2.7-1.91,5.41-3.81,8.11-5.72,1.7.88,3.48,1.66,5.09,2.68,3.97,2.5,7.59,5.87,11.88,7.48,4.64,1.74,10.09,3.17,14.79,2.38,5.92-1.01,11.43-4.41,17.12-6.78,2.58-1.21,2.58-2.42,0-3.63-1.13-.09-2.59-.68-3.35-.19-2.66,1.73-4.19.38-4.91-1.8-1.46-4.4-3.5-8.92-3.57-13.42-.32-21.25-.05-42.52,0-63.78.48-.33.95-.67,1.43-1-.48-.33-.96-.66-1.44-.99-.09-22.79-.16-45.57-.32-68.36-.01-1.89-.56-3.79-.93-6.12-4.3,2.73-7.47,5.06-10.92,6.88-8.96,4.71-17.83,9.92-28.25,10.54-8.93.52-16.29,3.21-21.22,11.26-3.85,6.3-8.22,12.29-12.35,18.41-2.35,2.81-4.93,5.47-6.95,8.51-.85,1.28-.52,3.34-.73,5.04-4.34,2.63-9.14,4.73-12.95,7.98-21.05,17.94-25.45,46.72-12.03,70.84.69,1.25,1.08,2.66,1.62,3.99-.06,1.82-.17,3.64-.16,5.47.04,5.17-.47,10.45.38,15.49.82,4.88,3.03,9.53,4.7,14.25,3.75,10.63,7.54,21.25,11.31,31.87,1.24,4.94,2.47,9.87,3.71,14.81l.75,3.14c.64,9.23.18,17.18-.98,25.61-2.14,15.6-10.38,27.86-22.92,37.3-8.87,6.68-19.29,8.77-29.92,10.29-4.33.31-8.65.63-12.98.94Zm235.86-146.1c2.4-1.36,4.81-2.73,7.21-4.09,1.51.43,3.83.4,4.41,1.38,3.32,5.67,9.12,7.76,14.38,10.65.35.24.7.48,1.05.72.35.1.7.2,1.05.3,2.66,1.35,5.32,2.7,7.99,4.05l2.97,1.06c1.33.36,2.66.71,3.98,1.07,4.33,1,8.66,1.99,12.99,2.99.69.22,1.38.44,2.08.66,11.55-.15,23.14.15,34.25-4.2-4.07-.57-8.15-1.14-12.22-1.71l-2.04-1.75c-5.41,1.77-9.15-1.76-13.25-4.17-.92-.52-1.83-1.04-2.75-1.56-4.94-4.56-10.55-8.6-14.62-13.84-3.2-4.12-6.82-9.27-2.66-15.34.63-.92.4-3.28-.37-4.18-3.19-3.73-3.5-8-3.38-12.56.16-5.95.1-11.91.1-17.87,0-1.16.13-2.44-.31-3.45-2.6-5.96-5-12.04-8.17-17.68-1.7-3.02-4.4-5.87-7.33-7.72-6.46-4.09-13.34-7.51-20.07-11.16-.52-.28-1.24-.44-1.82-.35-3.46.57-6.91,1.24-10.36,1.87-6.15-.03-12.36-.63-18.44.03-14.57,1.57-28.76,11.22-26.54,28.69,1.23,9.63,10.9,15.47,19.5,11.14,2.89-1.45,6.08-3.16,7.91-5.65,1.91-2.6,2.85-6.24,3.07-9.51.06-.84-4.25-1.85-6.45-2.99-2.88-1.49-6.16-2.63-6.08-6.91.09-4.97-.92-11.15,5.28-12.46,7.05-1.49,14.54-1.81,21.71.59,1.41,1.96,2.82,3.93,4.22,5.89l.74,2.04c-.15.62-.54,1.28-.43,1.84,1.19,5.86,2.96,11.65,3.51,17.56.33,3.52-1.22,7.21-1.93,10.83-3.2,1.9-6.19,4.67-9.65,5.52-7.8,1.92-15.81,3.02-23.77,4.2-7.62,1.13-15.2,3.14-20.52,8.63-12.58,13-9.78,38.31,12.86,42.67,3.12.6,6.88.88,9.24,2.03,6.82,3.32,12.61,1.92,18.76-.84,1.23-.55,2.71-.54,3.91-1.13,3.37-1.68,6.66-3.53,9.97-5.32Zm253.84-84.75c.05.47.1.93.14,1.4,3.19-.1,6.74,1.53,9.36-1.3-.1-.52-.2-1.04-.3-1.55-3.07.49-6.14.97-9.21,1.46Zm12.7-1.66c.09.67.18,1.35.27,2.02,1.4-.34,2.79-.68,4.19-1.02-.06-.42-.12-.84-.18-1.26-1.42.09-2.85.17-4.27.26Zm70.22,41.79c-.23.57-.55.98-.47,1.27.09.34.53.59.83.89.22-.33.65-.69.6-.97-.06-.37-.51-.66-.95-1.19Zm.61,7.21c.12-.28.39-.62.31-.82-.08-.2-.51-.26-.79-.38-.12.28-.4.62-.32.82.08.2.51.26.8.38Z"/>
  <path class="cls-14" d="m193.75,212.06c-.53-1.34-1.23-2.52-1.93-3.76-13.42-24.12-8.72-53.13,12.34-71.08,3.81-3.25,8.61-5.35,12.95-7.98,1.16-.24,2.33-.47,3.49-.71,12.21-1.24,24.15-1.21,34.86,6.22,1.51,1.05,3.75,1.06,5.12,1.41,0-11.33.15-21.89-.17-32.44-.05-1.57-2.32-4.36-3.59-4.38-4.18-.06-8.7.1-12.5,1.63-7.8,3.14-13.44,9.23-18.34,15.96-.39-.42-.79-.83-1.18-1.25,4.14-6.13,8.5-12.11,12.36-18.41,4.93-8.06,12.29-10.74,21.22-11.26,10.41-.61,19.29-5.83,28.25-10.54,3.45-1.81,6.62-4.15,10.92-6.88.37,2.34.92,4.23.93,6.12.15,22.79.22,45.57.32,68.36,0,.67,0,1.33.01,2-.06,21.26-.33,42.52,0,63.78.07,4.5,2.11,9.02,3.57,13.42.72,2.18,2.73,4.23,5.72,3.16,1.31-.47,1.78-.58,2.54-1.17v3.63c-5.69,2.37-11.2,5.77-17.12,6.78-4.7.8-10.15-.64-14.79-2.38-4.29-1.61-7.91-4.98-11.88-7.48-1.62-1.02-3.39-1.79-5.09-2.68-.72-.69-1.43-1.38-2.15-2.07,3.14-11.22,2.12-22.61.42-33.8-1.32-8.71-3.57-17.43-6.64-25.69-3.09-8.29-7.49-16.12-11.73-23.92-3.59-6.6-9.64-8.32-16.65-6.52-2.06.53-4.74,1.53-5.63,3.15-1.79,3.25-3.57,7.08-3.52,10.65.15,9.53.56,19.16,2.16,28.53,2.56,15.06,7.44,29.54,14.91,42.93,4.07,7.3,10.58,13.94,20.73,11.02,0,.48,0,.96,0,1.44-8.45,4.52-17.17,7.85-27.03,6.32-.65-.37-1.4-.11-2.05-.48-9.46-3.02-18.15-7.82-25.07-15.25-1.13-1.22-2.53-2.18-3.81-3.26-.63-1.05-1.26-2.1-1.89-3.14Z"/>
  <path class="cls-19" d="m176.62,230.92c-21.33,0-42.66,0-63.99,0,0-.23,0-.47,0-.7,5.52-1.27,11.12-2.44,12.5-9.29.17-.85.57-1.69.57-2.53,0-19.29-.07-38.59-.08-57.88-.02-25.67.04-51.35-.06-77.02,0-1.84-1.05-3.68-1.62-5.52-.75-.7-1.5-1.4-2.25-2.1-7.35-3.65-14.71-7.29-22.06-10.94,0-1.21,0-2.41,0-3.62,9.46,2.03,18.91,4.1,28.39,6.05,2.25.46,4.59.69,6.89.7,15.43.06,30.86.03,46.49,1.01-.74.34-1.45.87-2.21.98-12.39,1.65-15.28,6.63-15.39,17.3-.45,41.81-.32,83.63-.08,125.45.05,9.28,3.96,15.35,12.89,17.45,0,.23,0,.46,0,.69Z"/>
  <path class="cls-14" d="m439.54,243.26c-4.33-1-8.66-1.99-12.99-2.99-.58-3.13-2.15-2.6-3.98-1.07-.99-.35-1.98-.71-2.97-1.06-1.1-4.42-4.86-3.61-7.99-4.05-.35-.1-.7-.4-1.05-.5-.35-.24-.7-.28-1.05-.52-5.26-2.89-9.73-6.94-14.38-10.65-.89-.71-2.9-.94-4.41-1.38.3-2.75,1-5.53.81-8.25-.35-5.01-1.34-9.98-1.86-14.99-.78-7.5-1.58-15.01-1.97-22.54-.19-3.71-1.89-4.57-5.07-4.12.02-.6.04-1.19.06-1.79.71-3.61,2.26-7.31,1.93-10.83-.55-5.91-2.33-11.7-3.51-17.56-.11-.56,0,0-.31-1.84-.2-.55-.96-2.31-1.21-2.99-1.08-2.24-1.61-2.97-3.02-4.94.02-.98.03-1.95.05-2.93,3.38-.18,6.93-.15,10.43.04.57.03,1.45.07,2.04.15,7.45.95,13.31,5.36,19.77,9.45,2.93,1.85,5.64,4.7,7.33,7.72,3.17,5.65,5.71,11.69,7.55,17.92.31,1.05.36,1.72.51,3.64.45,5.94.49,11.49.33,17.44-.12,4.56.18,7.36,1.13,12.93.2,1.16.22,2.65.51,3.71.47,6.51,1.58,11.33,4.77,15.45,4.07,5.24,9.67,9.12,14.62,13.68.92.52,1.83,1.2,2.75,1.72,4.09,2.41,5.48,4.43,12.02,5.48,1.23.27,2.25.22,3.27.43,4.07.57,15.75,1.78,17.74,1.05-11.1,4.35-27.99,4.38-39.53,4.53-.69,0-1.62-.11-2.31-.33Z"/>
  <path class="cls-19" d="m476.59,153.02c4.76-8.06,12.94-12.55,22.13-14.74,4.97.59,9.94,1.18,14.92,1.77,7.84,1.85,13.92,6.11,17.94,13.16.59.96,1.18,1.92,1.77,2.88,3.64,7.94,5.28,14.26,6.6,23.99-1.23,3.29-3,7.56-4.08,10.89-.12.38.9,1.13,1.4,1.71.46-.52.91-1.04,1.37-1.57,1.65-1.7,3.31-3.4,4.96-5.1,3.71-2.96,7.42-5.92,11.13-8.89,3.23-1.95,8.4-2.16,8.95-6.88q1.89-1.38,2.83-2.19c.36-.24.73-.48,1.09-.72,3.54-2.77,7.09-5.14,10.7-7.81,1.1-.82,2.5-1.64,3.74-2.24,1.82-.89,3.46-1.5,5.35-2.49,11.38-5.82,22.88-9.28,35.19-11.96.01,1.03.02,2.06.04,3.08-10.64,5.05-21.29,10.08-31.9,15.18-1.15.55-2.1,1.27-3.15,2.05-.34.22-.68.7-1.02.91-9.02,10.01-18.02,20.03-27.06,30.02-1.87,2.06-3.85,4.03-5.77,6.04-1.36,1.67-2.72,3.33-4.07,5-10.51,12.45-24.19,20.1-39.13,25.83-3.22,1.23-6.5,2.3-9.76,3.44-.49-.48-.97-.96-1.46-1.44,1.8-1.22,3.6-2.45,5.41-3.67,1.02-.71,2.03-1.43,3.05-2.14,9.21-6.48,14.73-15.52,18.06-26.07.22-.5.68-1.8.82-2.24.55-1.11.7-1.64,1.21-2.62,1.55-4.69,1.02-3.56-.21-6.12-1.68-3.63-3.27-6.95-5.34-10.65-1.16-1.62-2.11-2.99-3.32-4.36-1.15-1.56-2.3-3.12-3.45-4.67-1.28-1.11-2.56-2.22-3.84-3.34-3.02-2-6.03-4-9.05-5.99-1.86-3.83-4.58-5.79-8.96-4.07-.6-.28-1.22-.47-1.94-.68-.48-.11-.71-.21-1.13-.23-.56-.03-9.32-2.33-13.39.95-.35-1.73-.26-2.29-.62-4.02Z"/>
  <path class="cls-20" d="m82.19,325.3c-1.99-9.99-2.07-15.78.71-23.01,4.69-12.19,12.09-22.8,23.66-29.27,5.56-3.11,12.25-4.93,18.62-5.67,9.12-1.05,18.58-1.21,26.93,3.89,12.5,7.64,22.11,17.51,21.39,33.38-.74,16.24-9.8,32.88-32.25,38.57-4.1,1.04-8.36,1.78-12.6,1.81-1.7.01-3.29-.76-5.95-1.44,11.29-7.3,17.49-16.76,20.1-28.84,2.75-12.74-4.33-25.45-16.91-28.99-21.97-6.18-35.32,3.92-41.88,23.11-1.49,4.35-1.61,9.22-.85,14.28-.49-.02-.5,2.2-.98,2.18Z"/>
  <path class="cls-1" d="m390.39,165.33c-.02.6-.04,1.19-.06,1.79-2.35,1.75-4.55,3.76-7.09,5.19-8.29,4.69-16.66,8.24-18.68,19.87-2.4,13.84-1.43,22.77,10.65,28.13,3.11,1.38,7.28.33,10.96.45,1.68.05,3.35.23,5.03.35-3.32,1.79-6.6,3.64-9.97,5.32-1.19.59-2.59.88-3.91,1.13-7.57,1.44-11.2,1.42-18.76.84-2.48-.19-5.9-1.07-9.24-2.03-22.64-4.37-25.44-29.67-12.86-42.67,5.32-5.5,12.89-7.5,20.52-8.63,7.96-1.18,18.44,1.8,23.77-4.2,2.15-2.42,3.34-5.52,9.65-5.52Z"/>
  <path class="cls-20" d="m644.62,227.86c-7.1-5.05-12.94-10.87-15.43-19.75-3.55-12.65-.06-23.3,9.1-31.1,9.74-8.28,21.95-9.53,31.9-3.76,4.38,2.54,7.79,6.77,11.64,10.23-.81-.02-2.14-.13-3.61-.32-4-.37-5.35-.41-9.22-.3-5.81.44-16.06,6.12-18.72,12.99-1.81,4.67-2.38,8.5-3.54,13.41-.08.49.1,2,.16,2.24,1.61,6.22,2.94,13.68,10.15,16.55,4.76,2.73,10.18,4.42,16.11,4.97,0,.57-.59,1.12-.6,1.69-6.96-.16-13.72-1.61-20.68-3.87-1.68-.55-3.08-.98-4.88-1.72-.88-.44-1.61-.75-2.39-1.27Z"/>
  <path class="cls-18" d="m384.36,224.65c-1.63.46-4.09.73-5.77.68-3.68-.12-7.95.37-11.06-1-12.08-5.36-13.05-14.29-10.65-28.13,2.02-11.63,10.39-15.18,18.68-19.87,2.53-1.43,4.73-3.44,7.09-5.19,3.17-.45,4.88.41,5.07,4.12.39,7.53,1.19,15.04,1.97,22.54.52,5.01,1.51,9.97,1.86,14.99.19,2.72-.51,5.5-.81,8.25-2.4,1.36-3.96,2.25-6.37,3.61Z"/>
  <path class="cls-11" d="m71.75,116.97c4.8,2.51,9.94,3.11,14.79.93,2.41-1.08,5.41-3.71,5.75-6,1.44-9.58.21-19.03-6.21-26.75-2.09-2.51-5.91-3.59-8.76-5.22,6.57-5.87,15.33-8.18,24.24-4.06,8.65,4,13.17,12.11,13.82,21.59.78,11.33-9.19,21.99-21.64,24.69-8.39,1.82-16.01.75-23.07-4.16.36-.34.72-.68,1.07-1.02Z"/>
  <path class="cls-11" d="m376.62,128.27c-.02.98-.03,1.95-.05,2.93-7.17-2.4-14.66-2.08-21.71-.59-6.2,1.31-8.02,6.93-8.1,11.9-.37,4.71,3.4,8.37,6.76,9.22,2.51.64,6.82.04,8.4-1.31,2.56-2.18-.97,9.47-2.87,12.06-1.83,2.49-5.02,4.19-7.91,5.65-8.6,4.33-18.27-1.51-19.5-11.14-2.23-17.47,11.96-27.11,26.54-28.69,6.08-.66,12.29-.05,18.44-.03Z"/>
  <path class="cls-6" d="m213.69,293.94c-1.24-4.94-2.47-9.87-3.71-14.81.59-.04,1.17-.08,1.76-.12,2.5,7.79,5.59,15.45,7.38,23.41,3.32,14.76,1.84,29.38-4.76,43-7.52,15.51-20.33,24-37.57,25.69-5.39.53-9.4,1.3-16.46,1.15,0-.88.3-1.1.3-1.98,10.63-1.52,21.05-3.61,29.92-10.29,12.54-9.44,20.78-21.7,22.92-37.3,1.16-8.42,3.24-17.31.98-25.61-.14-1.03-.4-1.82-.75-3.14Z"/>
  <path class="cls-13" d="m211.74,279.02c-.59.04-1.17.08-1.76.12-3.77-10.62-7.56-21.24-11.31-31.87-1.67-4.73-3.19-9.31-4.01-14.19-.85-5.04-1.02-10.38-1.06-15.56-.01-1.82.1-3.64.16-5.47.63,1.05,1.26,2.1,1.89,3.14.98,7.46,1.08,15.18,3.13,22.33,3.22,11.21,7.1,22.49,10.91,33.55,1.24,5.01,1.65,5.13,2.05,7.95Z"/>
  <path class="cls-12" d="m81.7,323.05c.49.02.98.04,1.47.06,4.76,16.88,15.85,28.75,30.43,37.55,9.25,5.58,19.33,10.06,30.31,10.46,1.06.09,2.32.11,3.73.11-.02.26,1.47.61,1.47.87-27.42.26-54.63-17.73-65.49-42.6-.82-1.88-1.6-4.35-1.93-6.44Z"/>
  <path class="cls-12" d="m72.23,117.21c-.36.34-1.19.44-1.55.78-19.08-11.3-20.46-36.21-2.59-50.9.32-.26,1.03-.97,1.52-1.02.42.41.85.82,1.27,1.23-7.41,6.29-12.93,13.54-13.35,23.86-.41,10.09,4.69,17.24,11.58,23.61.84.78,1.92,1.86,3.11,2.44Z"/>
  <path class="cls-12" d="m672.57,234.93c0-.57,0-1.13,0-1.7,7.98.13,15.61-1.03,21.83-4.81,3.09-2.18,6.8-4.91,9.89-7.96,1.36-1.34,2.55-2.29,3.84-3.75.21.16,1.13,1.01,1.33,1.18-2.66,3.84-6.53,7.14-10.32,10.15-2.22,1.77-3.7,3.04-6.23,4.61-1.27.59-2.83.99-4.12,1.23-5.42,1.02-10.71,1-16.22,1.06Z"/>
  <path class="cls-12" d="m679.16,141c4.2,1.39,7.11,2.47,11.93,4.98,6.02,3.68,11.98,7.72,17.64,11.99-.18.17-.37.33-.57.48-3.48-2.26-6.81-4.83-10.48-6.72-6.37-4.12-13.39-6.38-20.1-9.54.53-.4,1.06-.79,1.59-1.19Z"/>
  <path class="cls-7" d="m70.88,67.3c-.42-.41-.85-.82-1.27-1.23,4.6-1.66,9.08-4.07,13.82-4.79,5.28-.8,10.8-.05,16.21.03,0,1.21,0,2.41,0,3.62-9.96-3.78-19.37-.85-28.75,2.37Z"/>
  <path class="cls-9" d="m711.86,160.77c2.43,1.84,4.17,4.05,6.72,7,4.87,8.95,2.63,8.8,1.86,17.24-1.12-7.25-.36-14.62-8.82-23.28.35-1.13-.12.17.23-.96Z"/>
  <path class="cls-15" d="m220.6,128.53c-1.16.24-2.33.47-3.49.71.96-1.7,1.32-2.8,2.26-4.69,1.61-3.23,3.25-5.55,5.43-8.86.39.42.79.83,1.18,1.25-2.34,3.59-4.96,7.26-5.38,11.6Z"/>
  <path class="cls-10" d="m713.49,208.59c2.31-6.04,6.31-19.26,7.01-30.54.31.09-.08-4.64.78-2.79,1.96,3.64-1.66,21.82-2.57,25.01-1.03,3.62-2.38,6.44-4.01,9.71-.44.89-1.21,2.08-2.01,3.26.27-1.55.53-3.1.8-4.65Z"/>
  <path class="cls-16" d="m622.61,145.91c-.01-1.03-.02-2.06-.04-3.08,4.05-.75,8.1-1.5,12.16-2.25.18.75.36,1.51.54,2.26-4.5,1.09-8.73,1.72-12.66,3.07Z"/>
  <path class="cls-5" d="m513.63,140.05c-4.97-.59-9.95-1.18-14.92-1.77,4.78-.43,2.01-.44,5.9-.44,4.25.85,5.95,1.31,9.02,2.21Z"/>
  <path class="cls-5" d="m538.63,191.11c-.46.52-.91,1.04-1.37,1.57-.49-.58-1.52-1.33-1.4-1.71,1.08-3.33,2.55-9.41,3.77-12.7.43,1.65.68,6.12,1.1,7.77-.7,1.69-1.4,3.38-2.11,5.07Z"/>
  <path class="cls-2" d="m563.67,170.23c-.55,4.72-5.45,4.81-8.69,6.76,4.22-3.43,5.41-4.03,8.69-6.76Z"/>
  <path class="cls-7" d="m147.64,372.01c0-.26,0-.52.01-.78,4.33-.31,8.65-.63,12.98-.94,0,.88,5.8,1,5.8,1.87-4.8.33-14.46.15-18.79-.15Z"/>
  <path class="cls-16" d="m480.54,238.91c4.38-1.13,8.71-2.56,13.09-3.69.07.5.36.91.43,1.41-4.41,1.07-9.04,2.24-13.45,3.31-.04-.44-2.66.27-.07-1.03Z"/>
  <path class="cls-6" d="m259.57,220.07c.72.69,1.43,1.38,2.15,2.07-2.7,1.91-5.41,3.81-8.11,5.72,0-.48,0-.96,0-1.44,1.99-2.12,3.97-4.24,5.96-6.35Z"/>
  <path class="cls-5" d="m493.66,157c4.38-1.71,7.1.24,8.96,4.07-2.99-1.36-5.98-2.71-8.96-4.07Z"/>
  <path class="cls-16" d="m634.73,140.58c3.07-.49,8.75-1.17,11.82-1.65.1.52.21,1.26.31,1.78-4.9.95-8.46,1.49-11.59,2.13-.05-.47-.49-1.8-.54-2.26Z"/>
  <path class="cls-2" d="m538.63,191.11c.7-1.69,1.4-3.38,2.11-5.07.95-.01,2.88.13,3.77-.77-1.65,1.7-4.23,4.14-5.88,5.84Z"/>
  <path class="cls-5" d="m527.61,190.08c1.66,2.01,3.92,7.25-.45,8.15,1.43-4.8.78-6.27.45-8.15Z"/>
  <path class="cls-5" d="m411.62,234.08c3.12.44,6.88-.37,7.99,4.05-2.66-1.35-5.32-2.7-7.99-4.05Z"/>
  <path class="cls-5" d="m476.59,153.02c.35,1.73,3.52.86,3.87,2.59-.99-.04-4.8,2.51-5.79,2.47.64-1.69,1.28-3.38,1.92-5.07Z"/>
  <path class="cls-17" d="m682.66,142.38c-.53.4-4.56-.58-5.09-.19-2.03-.5-4.06-.99-6.09-1.49.04-.82-.5-1.1-.47-1.92,3.41,0,9.42,2.39,11.64,3.59Z"/>
  <path class="cls-12" d="m713.49,208.59c-.27,1.55-.53,3.1-.8,4.65-1.31,2.01-3.66,5.32-4.83,6.72-.2-.17.48-3.1.27-3.26,1.78-2.71,3.57-5.41,5.36-8.11Z"/>
  <path class="cls-16" d="m672.73,138.93c-.04.82-1.2.96-1.24,1.78-2.37-.26-14.65-1.12-16.99-.98.04-.29-.65-.95-.62-1.24,2.37-.27,13.02-.03,18.84.44Z"/>
  <path class="cls-5" d="m518.95,175.08c1.21,1.37,2.42,2.74,3.63,4.1-1.21-1.37-2.42-2.74-3.63-4.1Z"/>
  <path class="cls-2" d="m549.63,205.11c1.36-1.67,2.72-3.33,4.07-5-1.36,1.67-2.72,3.33-4.07,5Z"/>
  <path class="cls-5" d="m511.67,167.07c1.28,1.11,2.56,2.22,3.84,3.34-1.28-1.11-2.56-2.22-3.84-3.34Z"/>
  <path class="cls-12" d="m714.5,163.13c-.35,1.13-.79-.7-1.14.43-1.14-1.22-3.84-4.12-5.21-5.11.19-.15.38-.31.57-.48,1.02.64,4.96,4.23,5.77,5.16Z"/>
  <path class="cls-16" d="m646.36,138.95c1.42-.09,4.07-.49,7.96-.49.06.42.12.84.18,1.26-1.4.34-6.49.64-7.89.98-.09-.67-.16-1.08-.25-1.75Z"/>
  <path class="cls-5" d="m422.57,239.19c1.83-1.52,3.4-2.06,3.98,1.07-1.33-.36-2.66-.71-3.98-1.07Z"/>
  <path class="cls-6" d="m310.61,227.9c0-1.21-.61-1.21,0-3.63.99-2.29,1.23,1.93,0,3.63Z"/>
  <path class="cls-5" d="m533.34,156.08c-.59-.96-1.18-1.92-1.77-2.88.59.96,1.18,1.92,1.77,2.88Z"/>
  <path class="cls-8" d="m507.73,227.13c-1.02.71-2.03,1.43-3.05,2.14,1.02-.71,2.03-1.43,3.05-2.14Z"/>
  <path class="cls-1" d="m176.62,230.92c0-.23,0-.46,0-.69,1.46,0,2.92,0,4.38,0,0,.23,0,.46-.01.69h-4.37Z"/>
  <path class="cls-16" d="m448.36,232.1c-.92-.52-1.83-1.04-2.75-1.56.92.52,1.83,1.04,2.75,1.56Z"/>
  <path class="cls-18" d="m213.69,293.94c.25,1.05.5,2.09.75,3.14-.25-1.05-.5-2.09-.75-3.14Z"/>
  <path class="cls-5" d="m493.65,236.7c-.07-.5.05-.98-.02-1.48.99-.24,6.16-2.23,7.11-2.66.27.22-3.73,1.8-3.46,2.02,5.81-1.31-2.01,1.97-3.63,2.12Z"/>
  <path class="cls-6" d="m112.62,230.22c0,.23,0,.47,0,.7-1.07,0-2.15,0-3.22,0,0-.23-.01-.47-.02-.7h3.24Z"/>
  <path class="cls-5" d="m499.28,232.94c.49.48.97.96,1.46,1.44-.85.08-8.46,3.07-6.23,1.46.36-.56,4.41-2.34,4.77-2.9Z"/>
  <path class="cls-11" d="m224.62,233.08c.65.37,1.31.74,1.96,1.1-.65-.37-1.31-.74-1.96-1.1Z"/>
  <path class="cls-18" d="m298.8,145.08c0-.67,0-1.33-.01-2,.48.33.96.66,1.44.99-.48.33-.95.67-1.43,1Z"/>
  <path class="cls-5" d="m439.54,243.26c.69.22,1.38.44,2.08.66-.69-.22-1.38-.44-2.08-.66Z"/>
  <path class="cls-11" d="m380.8,137.08c.25.68.49,1.36.74,2.04-.25-.68-.49-1.36-.74-2.04Z"/>
  <path class="cls-18" d="m121.7,75.86c.75.7,1.5,1.4,2.25,2.1-.75-.7-1.5-1.4-2.25-2.1Z"/>
  <path class="cls-14" d="m481.66,238.61c.04.44-1.09.89-1.05,1.33-.92.11-4.6.93-5.52,1.04-.04-.24,2.17-1.26,2.13-1.5,1.57-.06,3.17-.5,4.44-.87Z"/>
  <path class="cls-5" d="m495.73,234.63c.38-.14,4.1-2.19,4.49-2.33-.12.36-2.83,1.92-2.94,2.28-.26-.22-1.28.27-1.54.05Z"/>
  <path class="cls-5" d="m409.51,233.06c.35.24.7.48,1.05.72-.35-.24-.7-.48-1.05-.72Z"/>
  <path class="cls-5" d="m526.61,200.06c-.27.33-.55.66-.82.99.27-.33.55-.66.82-.99Z"/>
  <path class="cls-5" d="m490.59,156.09c.33.24.65.47.98.71-.33-.24-.65-.47-.98-.71Z"/>
  <path class="cls-4" d="m586.54,164.06c.34-.22.68-.44,1.02-.66-.34.22-.68.44-1.02.66Z"/>
  <path class="cls-2" d="m567.59,167.32c-.36.24-.73.48-1.09.72.36-.24.73-.48,1.09-.72Z"/>
  <path class="cls-18" d="m259.57,220.07c-1.99,2.12-3.97,4.24-5.96,6.35-10.15,2.91-16.66-3.72-20.73-11.02-7.47-13.39-12.35-27.87-14.91-42.93-1.59-9.37-2.01-19.01-2.16-28.53-.05-3.57,1.73-7.4,3.52-10.65.89-1.61,3.57-2.61,5.63-3.15,7.01-1.8,13.06-.08,16.65,6.52,4.24,7.8,8.65,15.64,11.73,23.92,3.08,8.26,5.33,16.98,6.64,25.69,1.69,11.18,2.72,22.58-.42,33.8Z"/>
  <path class="cls-18" d="m220.6,128.53c1.79-3.87,3.58-7.73,5.38-11.6,4.9-6.72,10.55-12.82,18.35-15.96,3.8-1.53,8.32-1.69,12.5-1.63,1.27.02,3.54,2.8,3.59,4.38.32,10.55.17,21.11.17,32.44-1.37-.35-3.6-.36-5.12-1.41-10.71-7.44-22.65-7.46-34.86-6.22Z"/>
</svg>