<?xml version="1.0" encoding="UTF-8"?>
<svg id="Layer_2" data-name="Layer 2" xmlns="http://www.w3.org/2000/svg" viewBox="0 0 664.95 312.13">
  <defs>
    <style>
      .cls-1, .cls-2 {
        stroke-width: .25px;
      }

      .cls-1, .cls-2, .cls-3 {
        fill: none;
        stroke-miterlimit: 10;
      }

      .cls-1, .cls-3 {
        stroke: #e9667f;
      }

      .cls-4 {
        fill: #e8667f;
      }

      .cls-5 {
        fill: #e9667f;
      }

      .cls-2 {
        stroke: #e8667f;
      }

      .cls-3 {
        stroke-linecap: round;
      }
    </style>
  </defs>
  <g>
    <g>
      <path class="cls-5" d="m591.6,143.73c-.5,3.22-.33,7.05.47,10.14.65,2.57,1.74,5.02,3.28,7.18,2.21,3.11,5.29,5.53,8.61,7.42s7.71,3.46,11.28,4.81c-1.2-.02-2.41-.07-3.6-.16-8.21-.59-14.85-1.75-21.76-5.97-7.93-5.29-14.67-12.98-16.63-22.31-1.45-6.91-.3-14.33,3.18-20.47,1.51-2.67,3.05-5.15,5.5-7.34,3.71-2.99,7.25-5.45,11.85-6.67,2.22-.59,4.54-.72,6.84-.61,10.33.49,20.27,6.16,25.97,14.77-4.81-.92-9.71-1.33-14.6-1.23-2.75.06-5.59.3-8.03,1.57-1.19.61-2.24,1.45-3.25,2.32-2.35,2.04-4.5,4.35-6.01,7.06-1.51,2.72-2.42,6.51-3.08,9.49h-.02Z"/>
      <path class="cls-5" d="m580.21,79.8c-3.42.51-6.65,1.72-9.69,2.42l.02.09c-3.81.76-9.09,2.93-12.71,4.22-5.99,2.15-11.71,5.04-17.08,8.45-8.45,5.35-16.02,12.47-22.49,20.1-4.51,6.06-9.01,12.12-13.78,17.98-10,12.28-22.91,22.52-36.21,30v.02c-2.43,1.52-5.33,3.04-7.85,4.43-11.04,6.12-26.87,9.78-39.62,11.7l-.05-.33c.45-.1.89-.2,1.35-.31,9.32-2.16,20.22-6.04,29.58-11.7,9.55-5.77,15.48-14.76,19.26-25.94l-.07-.02c2.22-11.89-1.9-24.77-10.59-33.18-1.88-1.82-3.96-3.44-6.19-4.8-5.8-3.55-12.49-5.33-19.06-7.06-3.01-.79-6.07-1.59-9.18-1.46-3.1.13-6.32,1.33-8.16,3.83,4.23-6.17,9.05-12.67,15.4-16.63,7.9-4.94,18.2-5.51,26.86-2.07,8.51,3.38,15.37,10.42,19.13,18.77h-.01c1.74,3.77,2.52,7.28,3.1,10.88,1.24,7.74,1.17,15.3-.68,22.71l.16.04c21.69-21.95,37.33-34.69,66.54-44.63,9.23-2.65,18.48-5.3,27.93-7,1.35-.24,2.71-.46,4.07-.66l.02.15Z"/>
      <path class="cls-5" d="m322.02,112.93c.4-.19.83-.38,1.28-.56-4.9,2.43-9.99,4.71-14.06,8.26-4.08,3.54-7.31,8.17-8.73,13.38-1.06,3.93-1.07,8.06-.95,12.13.09,3.13.26,6.32,1.29,9.28.91,2.62,3.08,4.87,5.54,6.23,6.48,3.35,19.27,3.26,25.96.53-5.88,3.76-12.22,6.78-18.96,8.55-9.68,2.55-20.23,2.4-29.43-1.52-4.43-1.89-8.63-3.66-12.17-7.04-5.47-6-7.17-15.44-5.13-23.5,2.05-8.05,8.04-15,15.7-18.22,8.55-3.58,18.27-2.54,27.39-4.25,4.13-.78,8.15-2.14,11.9-4.02l.37.75Z"/>
      <path class="cls-5" d="m396.69,174.16c7.78,4.05,16.84,6.26,25.39,4.34l.02.07c-.46.11-.9.21-1.35.31l.05.33c-.46.07-.91.14-1.35.2-2.08.32-3.85.77-5.82,1.05-10.08,1.45-19.39,1.45-29.51.67-17.63-1.85-34.57-9.69-47.42-21.91-1.04.76-2.09,1.49-3.16,2.19,1.17-1.03,1.95-2.82,2.04-4.3.24-3.6.32-7.21.26-10.82-.07-4.13-.34-8.25-.6-12.37-.47-7.34-.94-14.7-2.46-21.88-.71-.91-1.53-1.86-2.66-2.05-.96-.16-1.9.27-2.78.68-1.19.56-2.68,1.13-4.02,1.69t-.02.01c-.45.18-.88.37-1.28.56l-.37-.75c2.78-1.38,5.42-3.05,7.86-4.97.52-4.4.99-8.83.69-13.25-.19-2.85-.7-5.66-1.33-8.45-.81-3.56-1.83-7.12-3.7-10.27-1.86-3.15-4.63-5.87-8.09-7.05-.27,0-.53.01-.8.01h0c8.53-.61,17.88.35,25.86,3.4,7.99,3.06,15.2,8.52,19.5,15.91,4.28,7.38,4.9,16.1,5.98,24.57,1.08,8.89,2.16,17.8,3.23,26.7.89,7.38,1.07,13.33,4.75,19.8,3.01,5.3,13.32,11.53,21.09,15.58Z"/>
      <path class="cls-5" d="m299.34,68.83c-2.5.8-4.39,3.01-5.25,5.5-.86,2.48-.78,5.2-.28,7.78.27,1.37.66,2.73,1.34,3.94.69,1.21,1.69,2.28,2.95,2.86,1.79.82,3.85.62,5.8.38,1.88,2.15,2.29,5.33,1.47,8.06-.84,2.75-2.82,5.06-5.16,6.72-2.34,1.67-5.05,2.76-7.77,3.68-1.35.46-2.91.39-4.33.32-1.44-.07-2.65-.15-3.93-.82-3.17-1.65-6.08-4.01-7.79-7.15-2.02-3.71-2.2-8.23-1.16-12.33,1.04-4.09,3.96-7.4,6.94-10.31,2.54-2.7,4.9-4.47,7.91-6.22,3.11-1.81,6.45-2.71,10.6-2.71-.46.06-.9.16-1.34.3Z"/>
      <path class="cls-5" d="m171.22,67.06c6.37-.78,12.97.24,18.8,2.94,2.64,1.22,5.13,2.78,7.78,3.98,2.65,1.21,5.56,2.06,8.45,1.75l.25-33.38h-.26c-.25-1.98-1.81-3.03-3.6-3.89s-3.87-.98-5.84-.68-3.73.58-5.6,1.26c-4.34,1.89-8.4,4.43-12.01,7.49-5.81,4.93-10.84,9.57-14.54,16.83l-.04-.02c1.54-4.26,3.64-8.32,6.24-12.04,1.37-1.95,2.87-3.81,4.32-5.69,2.04-2.64,3.99-5.34,6.1-7.92,3.32-4.07,7.01-7.86,11.01-11.28,8.44.56,16.85-1.41,24.77-4.37,7.92-2.95,15.31-7.21,22.29-11.98.82-.56,1.69-1.16,2.67-1.15.94,0,1.94.6,1.29,1.99h-.18l-.3,145.52.3.18c.73,3.17,3.02,5.44,5.83,7.08,2.24,1.3,5.64,1.76,8.21,2.14-9.71,6.17-22.01,8.12-33.15,5.26-2.65-.68-5.3-1.66-7.4-3.42-1.64-1.37-2.88-3.17-4.37-4.7-1.49-1.54-3.83-1.94-5.97-1.99-1.81,1.51-3.93,2.74-6.02,3.82-.53.27-1.05.54-1.58.8l-.02-.04c2.46-1.11,4.91-4.35,5.79-6.9.87-2.55,1.01-5.29,1.05-7.99.08-5.31-.17-10.63-.42-15.93-.4-8.44-2.38-16.95-4.4-25.16l-.08.02c-1.13-3.53-2.26-7.06-3.38-10.59-1.15-3.6-2.3-7.2-3.78-10.67-1.48-3.48-3.28-6.82-5.38-9.96-2.04-3.05-4.41-5.96-7.47-7.98-2.72-1.79-6.07-3.06-9.28-2.66l-.08-.67Z"/>
      <path class="cls-5" d="m146.38,79.67c4.08-4,10.49-8.08,16.49-10.45,1.72-.68,3.42-1.22,5.01-1.58,1.1-.25,2.22-.44,3.34-.58l.08.67c-.4.05-.79.12-1.18.22h0c-4.14.73-7.47,4.18-9.07,8.09-1.65,4.05-1.78,8.54-1.7,12.91.17,9.41,1.31,19.22,3.11,28.45,1.71,6.71,3.64,13.35,5.79,19.92,1.91,5.84,4.02,11.69,7.4,16.81,1.66,2.51,3.6,4.83,5.81,6.87,3.81,3.54,11.96,5.13,17.19,4.55l.02.04c-4.43,2.21-9.05,4.07-13.86,5.16-5.31,1.2-10.88,1.45-16.18.22h0c-6.77-2.1-13.22-5.26-19.02-9.33-3.99-3.37-7.55-7.24-10.6-11.48-2.63-3.65-4.87-7.57-6.68-11.69-2.45-6.83-3.93-17.02-3.21-25.09,1.13-12.79,7.73-25.07,17.21-33.73l.05.02Z"/>
      <path class="cls-5" d="m159.7,244.85c0-9.97-2.41-19.96-5.74-29.71l.11-.04c1.33,3.95,2.67,7.91,4,11.87,3.28,9.74,6.58,19.63,7.22,29.88h-.09c.41,6.52.19,13.4-2.2,19.63-2.39,6.22-6.12,11.84-10.14,17.16-2.45,3.25-5.05,6.44-8.25,8.97-4.81,3.8-10.76,5.92-16.77,7.16-5.69,1.17-17.36,1.94-23.18,1.96l-.06-.72c2.74-.24,5.46-.64,8.16-1.21,13.26-2.8,25.92-10.36,33.89-20.76,5.08-6.06,8.13-13.59,10.1-21.25,1.94-7.54,2.99-15.15,2.95-22.94Z"/>
      <path class="cls-5" d="m83.76,234.18c-3.34-4.81-11.24-10.63-16.96-11.6-5.77-.98-11.73-.09-17.3,1.69-4.76,1.52-9.39,3.73-13.02,7.16-3.8,3.59-6.33,8.35-7.98,13.31-1.65,4.97-3.2,8.45-3.2,13.97-1.59-8.81,1.41-18.58,5.8-26.53,4.38-7.95,10.86-14.68,18.43-19.69,6.04-4,12.96-6.97,20.2-7.29v-.02c9.29-.44,18.76.75,27.05,4.96,8.44,4.28,15.56,11.5,18.82,20.39s3.32,21.75-2.23,29.42c-4.97,8.03-12.53,14.67-21.03,19.07-8.51,4.4-18.68,6.07-27.83,3.22,6.78-2.15,12.99-6.51,16.84-12.5,3.85-5.98,5.79-13.11,5.99-20.22.15-5.32-.77-10.91-3.58-15.34Z"/>
      <path class="cls-5" d="m70.53,156.82l-.51-136.95c-.59-2.5-2.43-5.14-4.39-6.8-1.97-1.66-4.28-2.86-6.63-3.93-8.61-3.92-17.38-6.18-26.81-7-4.46-.21-8.95.63-13.04,2.4h0C22.91,2.37,27.4.7,31.91.42c13.62-.82,27.42,1.2,39.97,6.55v.18h52.8c-.04.53.16,1.68.12,2.21-3.24-.62-6.64.27-9.5,1.9-.77.44-1.51.94-2.23,1.47-2.37,1.76-4.57,4.2-4.72,7.14h-.18l.4,140.19h0c.7,2.74,3.27,5.4,5.55,6.76q1.43.86,2.17,1.3c1.56.92,5.83,1.53,7.59,1.94H52.86v-.09c1.95-.41,6.68-1.02,8.41-1.94q.82-.45,2.41-1.3c2.9-1.56,6.47-6.78,6.6-9.91h.25Z"/>
      <path class="cls-5" d="m37.7,40.33h-.03c-.86-5.35-2.96-10.5-6.1-14.93-1.26-1.78-2.71-3.48-4.57-4.62-1.89-1.16-4.16-1.71-6.37-1.53,4.8-4.6,12.4-6.56,18.93-5.34,7.41,1.38,12.43,5.96,16.23,12.83,3.32,5.17,4.17,11.85,2.25,17.69-1.92,5.83-7.25,11.36-12.99,13.55-4.47,2.35-9.55,3.53-14.59,3.37-5.71-.18-13.37-3.59-18.06-6.92,2.55,1.65,5.32,2.96,8.27,3.65,4.01.94,8.39.66,12.03-1.27,1.25-.66,2.42-1.53,3.2-2.7.87-1.32,1.19-2.92,1.42-4.48.44-3.07.57-6.2.38-9.3Z"/>
    </g>
    <g>
      <path class="cls-1" d="m108.57,160.07c.7,2.73,3.27,5.39,5.55,6.75q1.43.86,2.17,1.3c1.56.92,5.83,1.53,7.59,1.94"/>
      <path class="cls-1" d="m108.39,158.86c.02.4.08.8.18,1.2"/>
      <path class="cls-1" d="m70.28,156.82c-.13,3.13-3.7,8.35-6.6,9.91q-1.59.85-2.41,1.3c-1.73.92-6.46,1.53-8.41,1.94"/>
      <path class="cls-1" d="m70.02,19.87c-.59-2.5-2.43-5.14-4.39-6.8-1.97-1.66-4.28-2.86-6.63-3.93-8.61-3.92-17.38-6.18-26.81-7"/>
      <path class="cls-1" d="m32.19,2.14c-4.46-.21-8.95.63-13.04,2.4-1.08.46-2.13.99-3.15,1.58-4.86,2.84-9.1,6.16-11.63,11.19"/>
      <path class="cls-1" d="m4.37,17.31C1.04,22.6-.52,29.88.61,36.03c1.13,6.14,4.38,12.76,9.12,16.51"/>
      <path class="cls-1" d="m9.73,52.54c.86.67,1.75,1.3,2.67,1.89,2.55,1.65,5.32,2.96,8.27,3.65,4.01.94,8.39.66,12.03-1.27,1.25-.66,2.42-1.53,3.2-2.7.87-1.32,1.19-2.92,1.42-4.48.44-3.07.57-6.2.38-9.3,0-.09,0-.17,0-.26"/>
      <path class="cls-1" d="m37.67,40.33c-.86-5.35-2.96-10.5-6.1-14.93-1.26-1.78-2.71-3.48-4.57-4.62-1.89-1.16-4.16-1.71-6.37-1.53"/>
      <path class="cls-1" d="m20.63,19.25c4.8-4.6,12.4-6.56,18.93-5.34,7.41,1.38,12.43,5.96,16.23,12.83"/>
      <path class="cls-1" d="m55.79,26.74c3.32,5.17,4.17,11.85,2.25,17.69-1.92,5.83-7.25,11.36-12.99,13.55"/>
      <path class="cls-1" d="m12.28,54.35s.08.06.12.08c4.69,3.33,12.35,6.74,18.06,6.92,5.04.16,10.12-1.02,14.59-3.37.63-.33,1.25-.68,1.85-1.06"/>
      <path class="cls-1" d="m71.88,6.97C59.33,1.62,45.53-.4,31.91.42c-4.51.28-9,1.95-12.76,4.11"/>
      <polyline class="cls-3" points="243.12 10.07 243.12 10.9 242.82 156.42"/>
      <polyline class="cls-3" points="206.5 42.13 206.5 42.35 206.25 75.73 206.24 76.61"/>
      <path class="cls-1" d="m243.3,10.9c.65-1.39-.35-1.99-1.29-1.99-.98-.01-1.85.59-2.67,1.15-6.98,4.77-14.37,9.03-22.29,11.98-7.92,2.96-16.33,4.93-24.77,4.37"/>
      <path class="cls-1" d="m192.28,26.41c-4,3.42-7.69,7.21-11.01,11.28-2.11,2.58-4.06,5.28-6.1,7.92-1.45,1.88-2.95,3.74-4.32,5.69-2.6,3.72-4.7,7.78-6.24,12.04-.69,1.93-1.28,3.89-1.74,5.88-.17.71-.32,1.44-.46,2.16"/>
      <path class="cls-1" d="m191.2,39.04c-4.34,1.89-8.4,4.43-12.01,7.49-5.81,4.93-10.84,9.57-14.54,16.83"/>
      <path class="cls-1" d="m191.2,39.04c1.87-.68,3.63-.96,5.6-1.26s4.05-.18,5.84.68,3.35,1.91,3.6,3.89"/>
      <path class="cls-1" d="m206.27,75.73h-.02c-2.89.31-5.8-.54-8.45-1.75-2.65-1.2-5.14-2.76-7.78-3.98-5.83-2.7-12.43-3.72-18.8-2.94-1.12.14-2.24.33-3.34.58-1.59.36-3.29.9-5.01,1.58-6,2.37-12.41,6.45-16.49,10.45-.17.17-.34.33-.5.5"/>
      <path class="cls-1" d="m146.33,79.65c-9.48,8.66-16.08,20.94-17.21,33.73-.72,8.07.76,18.26,3.21,25.09"/>
      <path class="cls-1" d="m132.33,138.47c1.81,4.12,4.05,8.04,6.68,11.69,3.05,4.24,6.61,8.11,10.6,11.48,5.8,4.07,12.25,7.23,19.02,9.32"/>
      <path class="cls-1" d="m168.36,170.91l.27.06c5.3,1.23,10.87.98,16.18-.22,4.81-1.09,9.43-2.95,13.86-5.16.53-.26,1.05-.53,1.58-.8,2.09-1.08,4.21-2.31,6.02-3.82,1.62-1.37,2.99-2.96,3.86-4.89"/>
      <path class="cls-1" d="m170.53,67.89c-.14.02-.28.04-.41.07-4.14.72-7.47,4.17-9.07,8.08-1.65,4.05-1.78,8.54-1.7,12.91.17,9.41,1.31,19.22,3.11,28.45"/>
      <path class="cls-1" d="m170.12,67.95c.39-.1.78-.17,1.18-.22,3.21-.4,6.56.87,9.28,2.66,3.06,2.02,5.43,4.93,7.47,7.98,2.1,3.14,3.9,6.48,5.38,9.96,1.48,3.47,2.63,7.07,3.78,10.67,1.12,3.53,2.25,7.06,3.38,10.59"/>
      <path class="cls-1" d="m162.46,117.4c1.71,6.71,3.64,13.35,5.79,19.92,1.91,5.84,4.02,11.69,7.4,16.81,1.66,2.51,3.6,4.83,5.81,6.87,3.81,3.54,11.96,5.13,17.19,4.55"/>
      <path class="cls-1" d="m200.59,109.23c.03.11.06.23.08.34,2.02,8.21,4,16.72,4.4,25.16.25,5.3.5,10.62.42,15.93-.04,2.7-.18,5.44-1.05,7.99-.88,2.55-3.33,5.79-5.79,6.9"/>
      <path class="cls-1" d="m243.12,156.6c.73,3.17,3.02,5.44,5.83,7.08,2.24,1.3,5.64,1.76,8.21,2.14"/>
      <path class="cls-1" d="m206.27,160.97c2.14.05,4.48.45,5.97,1.99,1.49,1.53,2.73,3.33,4.37,4.7,2.1,1.76,4.75,2.74,7.4,3.42,11.14,2.86,23.44.91,33.15-5.26"/>
      <path class="cls-1" d="m139.04,149.73c-.01.14-.02.29-.03.43-1.28,16.24,1.51,33.74,8.55,48.41"/>
      <path class="cls-1" d="m147.29,197.91l.27.66c2.25,5.41,4.48,10.95,6.4,16.57,3.33,9.75,5.74,19.74,5.74,29.71"/>
      <path class="cls-1" d="m159.7,244.85c.04,7.79-1.01,15.4-2.95,22.94-1.97,7.66-5.02,15.19-10.1,21.25"/>
      <path class="cls-1" d="m58.01,301.94c-.65-.37-1.24-.74-1.73-1.11"/>
      <path class="cls-1" d="m60.24,303.13c-.66-.33-1.29-.65-1.88-.99"/>
      <path class="cls-1" d="m146.65,289.04c-7.97,10.4-20.63,17.96-33.89,20.76-2.7.57-5.42.97-8.16,1.21-10.71.96-21.63-.45-32.06-3.25-2.91-.78-8.03-2.58-12.07-4.52"/>
      <path class="cls-2" d="m61.1,303.51c-.21-.08-.42-.17-.63-.27-.07-.03-.15-.07-.23-.11-.63-.29-1.26-.62-1.88-.99-.12-.06-.23-.13-.35-.2-.58-.35-1.16-.72-1.73-1.11-.02-.01-.05-.03-.07-.05-1.57-1.06-3.06-2.23-4.5-3.33-1.51-1.17-2.94-2.44-4.36-3.71-2.95-2.63-5.9-5.26-8.55-8.18-6.82-7.51-11.54-16.9-13.5-26.85-.03-.14-.06-.29-.09-.43"/>
      <path class="cls-1" d="m25.3,258.71c-1.59-8.81,1.41-18.58,5.8-26.53,4.38-7.95,10.86-14.68,18.43-19.69,6.04-4,12.96-6.97,20.2-7.29"/>
      <path class="cls-1" d="m25.3,258.71c0-5.52,1.55-9,3.2-13.97,1.65-4.96,4.18-9.72,7.98-13.31,3.63-3.43,8.26-5.64,13.02-7.16,5.57-1.78,11.53-2.67,17.3-1.69,5.72.97,13.62,6.79,16.96,11.6l.09.12"/>
      <path class="cls-1" d="m69.19,205.2c.18,0,.36-.02.54-.02,9.29-.44,18.76.75,27.05,4.96,8.44,4.28,15.56,11.5,18.82,20.39s3.32,21.75-2.23,29.42"/>
      <path class="cls-1" d="m113.37,259.95c-4.97,8.03-12.53,14.67-21.03,19.07-8.51,4.4-18.68,6.07-27.83,3.22"/>
      <path class="cls-1" d="m81.51,231.3c.86.88,1.61,1.85,2.25,2.88,2.81,4.43,3.73,10.02,3.58,15.34-.2,7.11-2.14,14.24-5.99,20.22-3.85,5.99-10.06,10.35-16.84,12.5"/>
      <path class="cls-2" d="m104.66,311.73c5.82-.02,17.49-.79,23.18-1.96,6.01-1.24,11.96-3.36,16.77-7.16,3.2-2.53,5.8-5.72,8.25-8.97,4.02-5.32,7.75-10.94,10.14-17.16,2.39-6.23,2.61-13.11,2.2-19.62"/>
      <path class="cls-1" d="m165.36,257.99c-.02-.38-.04-.76-.07-1.14-.64-10.25-3.94-20.14-7.22-29.88-1.33-3.96-2.67-7.92-4-11.87-.09-.26-.17-.51-.26-.77"/>
      <path class="cls-1" d="m329.39,108.21c.04-.33.08-.66.12-1,.52-4.4.99-8.83.69-13.25-.19-2.85-.7-5.66-1.33-8.45-.81-3.56-1.83-7.12-3.7-10.27-1.86-3.15-4.63-5.87-8.09-7.05"/>
      <path class="cls-1" d="m317.08,68.19c-.27,0-.53.01-.8.01-4.29.06-8.59.11-12.88.17-.9.01-1.82.03-2.72.16-.46.06-.9.16-1.34.3-2.5.8-4.39,3.01-5.25,5.5-.86,2.48-.78,5.2-.28,7.78.27,1.37.66,2.73,1.34,3.94.69,1.21,1.69,2.28,2.95,2.86,1.79.82,3.85.62,5.8.38.02,0,.05-.01.07-.01"/>
      <path class="cls-1" d="m303.86,89.24s.03.03.04.05c1.88,2.15,2.29,5.33,1.47,8.06-.84,2.75-2.82,5.06-5.16,6.72-2.34,1.67-5.05,2.76-7.77,3.68-1.35.46-2.91.39-4.33.32-1.44-.07-2.65-.15-3.93-.82-3.17-1.65-6.08-4.01-7.79-7.15-2.02-3.71-2.2-8.23-1.16-12.33,1.04-4.09,3.96-7.4,6.94-10.31"/>
      <path class="cls-1" d="m281.95,77.7c.08-.08.15-.16.22-.24,2.54-2.7,4.9-4.47,7.91-6.22,3.11-1.81,6.45-2.71,10.6-2.71"/>
      <path class="cls-1" d="m316.28,68.19c8.53-.6,17.88.36,25.86,3.41,7.99,3.06,15.2,8.52,19.5,15.91,4.28,7.38,4.9,16.1,5.98,24.57"/>
      <path class="cls-1" d="m366.97,106.69c.22,1.8.43,3.59.65,5.39,1.08,8.89,2.16,17.8,3.23,26.7.89,7.38,1.07,13.33,4.75,19.8"/>
      <path class="cls-1" d="m331.12,105.89c-.53.46-1.06.9-1.61,1.32-2.44,1.92-5.08,3.59-7.86,4.97-3.75,1.88-7.77,3.24-11.9,4.02-9.12,1.71-18.84.67-27.39,4.25-7.66,3.22-13.65,10.17-15.7,18.22-2.04,8.06-.34,17.5,5.13,23.5"/>
      <path class="cls-1" d="m333.54,161.41c1.07-.7,2.12-1.43,3.16-2.19,1.04-.75,2.07-1.53,3.08-2.33"/>
      <path class="cls-1" d="m332.38,162.17c.39-.25.76-.49,1.14-.74"/>
      <path class="cls-1" d="m271.79,162.17c3.54,3.38,7.74,5.15,12.17,7.04,9.2,3.92,19.75,4.07,29.43,1.52,6.74-1.77,13.08-4.79,18.96-8.55"/>
      <path class="cls-1" d="m323.3,112.37c-4.9,2.43-9.99,4.71-14.06,8.26-4.08,3.54-7.31,8.17-8.73,13.38-1.06,3.93-1.07,8.06-.95,12.13.09,3.13.26,6.32,1.29,9.28.91,2.62,3.08,4.87,5.54,6.23.34.2.68.37,1.02.52"/>
      <path class="cls-1" d="m332.38,162.17s-.02.01-.03.01c-6.69,2.73-19.48,2.82-25.96-.53"/>
      <path class="cls-1" d="m322.02,112.93c.4-.19.83-.38,1.28-.56t.02-.01c1.34-.56,2.83-1.13,4.02-1.69.88-.41,1.82-.84,2.78-.68,1.13.19,1.95,1.14,2.66,2.05.03.03.05.07.08.1"/>
      <path class="cls-1" d="m332.66,111.47l.12.57c1.52,7.18,1.99,14.54,2.46,21.88.26,4.12.53,8.24.6,12.37.06,3.61-.02,7.22-.26,10.82-.09,1.48-.87,3.27-2.04,4.3l-.02.02c-.27.23-.56.42-.86.56"/>
      <path class="cls-1" d="m336.59,159.12s.07.07.11.1c12.85,12.22,29.79,20.06,47.42,21.91"/>
      <path class="cls-1" d="m375.6,158.58c3.01,5.3,13.32,11.53,21.09,15.58,7.78,4.05,16.84,6.26,25.39,4.34"/>
      <path class="cls-1" d="m384.12,181.13c10.12.78,19.43.78,29.51-.67,1.97-.28,3.74-.73,5.82-1.05"/>
      <path class="cls-1" d="m420.75,178.88c.45-.1.89-.2,1.35-.31,9.32-2.16,20.22-6.04,29.58-11.7,9.55-5.77,15.48-14.76,19.26-25.94.03-.09.07-.19.1-.29"/>
      <path class="cls-1" d="m419.45,179.41c.44-.06.89-.13,1.35-.2,12.75-1.92,28.58-5.58,39.62-11.7,2.52-1.39,5.42-2.91,7.86-4.43"/>
      <path class="cls-1" d="m470.87,140.91c2.22-11.89-1.9-24.77-10.59-33.18-1.88-1.82-3.96-3.44-6.19-4.8-5.8-3.55-12.49-5.33-19.06-7.06-3.01-.79-6.07-1.59-9.18-1.46-3.1.13-6.32,1.33-8.16,3.83"/>
      <path class="cls-1" d="m417.69,98.24c4.23-6.17,9.05-12.67,15.4-16.63,7.9-4.94,18.2-5.51,26.86-2.07,8.51,3.38,15.37,10.42,19.13,18.77.07.14.14.29.2.43"/>
      <path class="cls-1" d="m479.07,98.31c1.74,3.77,2.52,7.28,3.1,10.88,1.24,7.74,1.17,15.3-.68,22.71-.49,1.96-1.11,3.92-1.86,5.86"/>
      <path class="cls-1" d="m467.92,163.26c.12-.07.23-.13.35-.2,13.3-7.48,26.21-17.72,36.21-30,4.77-5.86,9.27-11.92,13.78-17.98"/>
      <path class="cls-1" d="m518.26,115.08c6.47-7.63,14.04-14.75,22.49-20.1,5.37-3.41,11.09-6.3,17.08-8.45,3.62-1.29,8.9-3.46,12.71-4.22.05,0,.09-.02.14-.03"/>
      <path class="cls-1" d="m481.65,131.94c21.69-21.95,37.33-34.69,66.54-44.63"/>
      <path class="cls-1" d="m548.19,87.31c9.23-2.65,18.48-5.3,27.93-7,1.35-.24,2.71-.46,4.07-.66,11.63-1.71,23.36-1.85,35.17-1.08"/>
      <path class="cls-1" d="m570.52,82.22c3.04-.7,6.27-1.91,9.69-2.42"/>
      <path class="cls-1" d="m615.36,78.57c16.7,1.02,32.22,11.39,42.6,24.54.07.08.13.17.2.25"/>
      <path class="cls-1" d="m657.77,102.83c.07.09.13.18.19.28,5.83,8.37,7.42,19.26,5.58,29.31-1.87,10.15-7.51,19.03-13.95,27.09"/>
      <path class="cls-1" d="m649.59,159.51c-3.91,4.3-8.42,7.75-13.76,10.05-6.46,2.78-13.54,3.84-20.59,3.72-1.2-.02-2.41-.07-3.6-.16-8.21-.59-14.85-1.75-21.76-5.97"/>
      <path class="cls-1" d="m589.88,167.15c-7.93-5.29-14.67-12.98-16.63-22.31-1.45-6.91-.3-14.33,3.18-20.47,1.51-2.67,3.05-5.15,5.5-7.34"/>
      <path class="cls-1" d="m581.93,117.03c3.71-2.99,7.25-5.45,11.85-6.67,2.22-.59,4.54-.72,6.84-.61,10.33.49,20.27,6.16,25.97,14.77.01,0,.01.01.01.01"/>
      <path class="cls-1" d="m626.59,124.52c-4.81-.92-9.71-1.33-14.6-1.23-2.75.06-5.59.3-8.03,1.57-1.19.61-2.24,1.45-3.25,2.32-2.35,2.04-4.5,4.35-6.01,7.06-1.51,2.72-2.42,6.51-3.08,9.49"/>
      <path class="cls-1" d="m591.7,143.08c-.04.21-.08.43-.1.65-.5,3.22-.33,7.05.47,10.14.65,2.57,1.74,5.02,3.28,7.18,2.21,3.11,5.29,5.53,8.61,7.42s7.71,3.46,11.28,4.81t.02,0"/>
      <polyline class="cls-3" points="70.02 18.79 70.02 19.87 70.53 156.82 70.53 157.33"/>
      <polyline class="cls-3" points="108.17 18.6 108.17 19.87 108.57 160.06 108.57 160.07 108.57 160.75"/>
      <polyline class="cls-3" points="71.78 7.15 71.88 7.15 124.28 7.15"/>
      <polyline class="cls-3" points="52.58 170.06 52.86 170.06 123.88 170.06 124.44 170.06"/>
      <path class="cls-1" d="m124.68,7.15c-.04.53.16,1.68.12,2.21-3.24-.62-6.64.27-9.5,1.9-.77.44-1.51.94-2.23,1.47-2.37,1.76-4.57,4.2-4.72,7.14"/>
    </g>
  </g>
  <path class="cls-4" d="m167.9,56.06c-1.46,2.17-2.54,4.6-3.47,7.04s-1.68,4.82-2.23,7.31c-.17.78,1.03,1.12,1.21.33.53-2.41,1.27-4.79,2.15-7.1s1.98-4.81,3.43-6.95c.45-.67-.63-1.3-1.08-.63h0Z"/>
  <path class="cls-4" d="m138.57,149.99c-.61,5.89-.75,11.82-.39,17.74.16,2.68.39,5.36.91,7.99.55,2.81,1.37,5.56,2.15,8.31.22.77,1.42.44,1.21-.33-.74-2.61-1.51-5.21-2.06-7.87-.59-2.83-.83-5.71-.99-8.59-.32-5.75-.17-11.52.42-17.24.08-.8-1.17-.79-1.25,0h0Z"/>
  <path class="cls-4" d="m141.24,184.03c3.69,9.45,7.39,18.89,11.08,28.34.29.74,1.5.42,1.21-.33-3.69-9.45-7.39-18.89-11.08-28.34-.29-.74-1.5-.42-1.21.33h0Z"/>
  <path class="cls-4" d="m152.08,211.71c3.32,8.66,6.21,17.53,7.55,26.72.12.79,1.32.46,1.21-.33-1.34-9.2-4.24-18.07-7.55-26.72-.29-.74-1.49-.42-1.21.33h0Z"/>
  <path class="cls-4" d="m114.02,309.65c-7.82,1-15.7,1.36-23.58,1.05-3.81-.15-7.78-.86-11.51-1.66s-7.49-1.9-10.97-3.45c-.73-.32-1.37.75-.63,1.08,6.95,3.09,14.61,4.46,22.14,5.22,4,.4,8.16.22,12.17.06s8.27-.52,12.38-1.05c.79-.1.8-1.35,0-1.25h0Z"/>
  <path class="cls-4" d="m25.12,251.12c-.97,6.06-.18,12.09,2.22,17.73s5.95,10.56,9.38,15.54c.45.66,1.54.03,1.08-.63-3.2-4.62-6.5-9.24-8.86-14.36-2.6-5.64-3.61-11.78-2.62-17.94.13-.79-1.08-1.13-1.21-.33h0Z"/>
  <path class="cls-4" d="m36.74,284.35c3.9,5.23,8.93,9.5,14.15,13.35s11.26,7.11,17.64,9.42c.76.27,1.08-.93.33-1.21-6.13-2.22-11.71-5.18-16.98-9.03-5.17-3.78-10.22-8-14.07-13.16-.48-.64-1.56-.01-1.08.63h0Z"/>
  <path class="cls-4" d="m28.28.91c-6.87,1-13.41,4-18.58,8.64S1.11,20.56.4,27.64c-.42,4.14.06,8.33,1.18,12.33.22.77,1.42.44,1.21-.33C.38,31.07,1.28,21.53,6.89,14.37,12.17,7.63,20.19,3.34,28.61,2.12c.79-.12.46-1.32-.33-1.21h0Z"/>
  <path class="cls-4" d="m23.86,58.66c-5.1-1.49-9.95-3.33-13.88-7.02-3.47-3.26-5.98-7.43-7.22-12.03-.21-.78-1.42-.45-1.21.33,1.29,4.79,3.92,9.18,7.54,12.58,4.09,3.84,9.12,5.79,14.43,7.34.77.23,1.1-.98.33-1.21h0Z"/>
  <path class="cls-4" d="m296.85,70c4.54-.53,9.1-.86,13.67-.99,2.28-.06,4.57-.08,6.86-.04,2.02.04,4.03.15,5.8,1.23.69.42,1.32-.66.63-1.08-1.6-.97-3.4-1.27-5.23-1.36-2.35-.12-4.72-.07-7.07-.02-4.9.1-9.79.45-14.65,1.01-.79.09-.8,1.34,0,1.25h0Z"/>
  <path class="cls-4" d="m328.25,164.49c4.76-1.01,8.07-4.8,11.04-8.38.51-.61-.37-1.5-.88-.88-2.83,3.41-5.94,7.09-10.48,8.05-.79.17-.45,1.37.33,1.21h0Z"/>
  <path class="cls-4" d="m412.28,180.46c7.37-.11,14.67-1.5,21.57-4.12.74-.28.42-1.49-.33-1.21-6.8,2.58-13.97,3.96-21.23,4.07-.8.01-.81,1.26,0,1.25h0Z"/>
  <path class="cls-4" d="m562.11,85.26c11.18-3.67,22.81-5.88,34.56-6.47,10.4-.52,20.99.23,30.97,3.32,5.63,1.74,10.98,4.26,15.82,7.61.66.46,1.29-.62.63-1.08-17.99-12.44-41.78-12.92-62.62-9.45-6.68,1.11-13.27,2.75-19.7,4.87-.76.25-.43,1.46.33,1.21h0Z"/>
  <path class="cls-4" d="m642.8,89.22c5.94,4.08,11.41,9.12,15.28,15.24,4.1,6.49,5.91,14.19,5.59,21.84-.19,4.52-1.16,8.96-2.83,13.17-.3.75.91,1.07,1.21.33,3-7.59,3.69-16.01,1.98-23.99-1.62-7.52-5.57-14.07-10.89-19.56-2.94-3.04-6.22-5.72-9.71-8.11-.66-.46-1.29.63-.63,1.08h0Z"/>
  <path class="cls-4" d="m611.05,173c8.68.45,17.83.85,25.94-2.83,7.66-3.47,13.79-10.36,18.27-17.32,2.75-4.27,4.97-8.85,7.02-13.48.32-.73-.75-1.37-1.08-.63-3.46,7.78-7.46,15.27-13.3,21.55-2.83,3.05-5.99,5.84-9.65,7.85-3.86,2.13-8.2,3.19-12.56,3.62-4.87.48-9.77.24-14.64-.01-.8-.04-.8,1.21,0,1.25h0Z"/>
</svg>